<svg xmlns="http://www.w3.org/2000/svg" width="190" height="106" viewBox="0 0 190 106" role="img">

<g fill="none" stroke="#075ECC" stroke-width="1.35" stroke-linecap="round" stroke-linejoin="round"><g id="conversation"><path d="M50 12h63c3 0 5 2 5 5v27c0 3-2 5-5 5H78l-11 11V49H55c-3 0-5-2-5-5V17c0-3 2-5 5-5zM66 29h35M66 39h23"/><path stroke="#68AAF4" d="M53 66v15c0 5 3 8 8 8h39M127 55h22c8 0 13 5 13 13v12l-4 8-8-8h-13c-6 0-10-4-10-10z"/></g><circle cx="169" cy="31" r="3.2" fill="#075ECC" stroke="none"/><circle cx="26" cy="77" r="3.2" fill="#075ECC" stroke="none"/><circle cx="114" cy="85" r="2" fill="#FDFCF9" stroke="#075ECC"/><circle cx="162" cy="91" r="3.2" fill="#075ECC" stroke="none"/></g>
</svg>