<svg xmlns="http://www.w3.org/2000/svg" width="463" height="321" viewBox="0 0 463 321" role="img">

<g fill="none" stroke="#86beff" stroke-width="1.35" stroke-linecap="round" stroke-linejoin="round"><g id="paths" stroke="#6199dc"><path d="M44 116v25c0 25 11 39 35 39h80M150 73h31c20 0 33 14 33 34M93 143h65M158 180c-30 0-38 13-38 43v43M158 180v39c0 21 17 32 57 32M295 139h26c24 0 33 12 33 32v45M323 215v34c0 25-13 37-41 37h-66M402 84v48c0 23-12 34-34 34h-45"/><path stroke-dasharray="1 5" d="M245 105a58 58 0 0 1 116 14v39M159 198a61 61 0 0 0-69 96M216 250a58 58 0 0 0 108 0"/></g><g id="resume"><path d="M188 106h83l24 24v99h-107zM271 106v24h24M205 127h18v21h-18zM236 127h23M236 137h23M205 164h74M205 178h74M205 192h74M205 207h48"/></g><text x="16" y="67" text-anchor="start" fill="#86beff" stroke="none" font-family="Arial, sans-serif" font-size="9" letter-spacing="1.5"><tspan x="16" dy="0">RESEARCH</tspan><tspan x="16" dy="13">ENGINEERING</tspan><tspan x="16" dy="13">PRACTICE</tspan></text><text x="353" y="239" text-anchor="start" fill="#86beff" stroke="none" font-family="Arial, sans-serif" font-size="9" letter-spacing="1.5"><tspan x="353" dy="0">CURIOSITY</tspan><tspan x="353" dy="13">LEADS TO</tspan><tspan x="353" dy="13">PROGRESS</tspan></text><rect x="147.5" y="70.5" width="5" height="5" fill="#102137" stroke="#86beff" stroke-width="1.5"/><circle cx="92" cy="143" r="3.2" fill="#86beff" stroke="none"/><circle cx="158" cy="180" r="3.2" fill="#86beff" stroke="none"/><rect x="117.5" y="263.5" width="5" height="5" fill="#102137" stroke="#86beff" stroke-width="1.5"/><circle cx="215" cy="251" r="3.2" fill="#86beff" stroke="none"/><rect x="319.5" y="212.5" width="5" height="5" fill="#102137" stroke="#86beff" stroke-width="1.5"/><circle cx="402" cy="84" r="3.2" fill="#86beff" stroke="none"/></g>
</svg>